<svg xmlns="http://www.w3.org/2000/svg" data-name="Layer 1" viewBox="0 0 32 32"><rect width="2" height="4" x="24.5" y="9.5" fill="#c8c5cc"></rect><rect width="2" height="4" x="5.5" y="9.5" fill="#c8c5cc"></rect><rect width="27" height="16" x="2.5" y="13.5" fill="#e4eef9"></rect><rect width="1" height="16" x="28.5" y="13.5" fill="#d5e0f2"></rect><rect width="31" height="2" x=".5" y="29.5" fill="#606060"></rect><rect width="1" height="2" x="30.5" y="29.5" fill="#57565c"></rect><rect width="19" height="2" x="6.5" y="15.5" fill="#ed4769"></rect><rect width="1" height="2" x="24.5" y="15.5" fill="#eb304a"></rect><rect width="17" height="12" x="7.5" y="17.5" fill="#f9b15e"></rect><rect width="1" height="12" x="23.5" y="17.5" fill="#f9a242"></rect><rect width="1" height="12" x="15.5" y="17.5" fill="#fff"></rect><rect width="1" height="2" x="17.5" y="22" fill="#fff"></rect><rect width="1" height="2" x="13.5" y="22" fill="#fff"></rect><rect width="25" height="10" x="3.5" y=".5" fill="#91c771"></rect><rect width="25" height="10" x="3.5" y=".5" fill="#91c771"></rect><rect width="1" height="10" x="27.5" y=".5" fill="#77be51"></rect><rect width="21" height="6" x="5.5" y="2.5" fill="#fff"></rect><rect width="4" height="1" x="14" y="5" fill="#ed4769"></rect><path d="M14,6h4V5H14Zm4.5,16h-1v2h1Zm-4,0h-1v2h1ZM30,29V13H27V11h2V0H3V11H5v2H2V29H0v3H32V29ZM4,10V1H28v9Zm22,1v2H25V11Zm-2,0v2H8V11ZM7,11v2H6V11ZM3,14H29V29H25V18h1V15H6v3H7V29H3Zm4,3V16H25v1Zm17,1V29H16.5V18Zm-8.5,0V29H8V18ZM31,31H1V30H31ZM5,9H27V2H5ZM6,3H26V8H6Z"></path></svg>