<svg xmlns="http://www.w3.org/2000/svg" data-name="Layer 1" viewBox="0 0 32 32"><path fill="#c8c5cc" d="M24.5 9.5h2v4h-2zM5.5 9.5h2v4h-2z"/><path fill="#e4eef9" d="M2.5 13.5h27v16h-27z"/><path fill="#d5e0f2" d="M28.5 13.5h1v16h-1z"/><path fill="#606060" d="M.5 29.5h31v2H.5z"/><path fill="#57565c" d="M30.5 29.5h1v2h-1z"/><path fill="#ed4769" d="M6.5 15.5h19v2h-19z"/><path fill="#eb304a" d="M24.5 15.5h1v2h-1z"/><path fill="#f9b15e" d="M7.5 17.5h17v12h-17z"/><path fill="#f9a242" d="M23.5 17.5h1v12h-1z"/><path fill="#fff" d="M15.5 17.5h1v12h-1zM17.5 22h1v2h-1zM13.5 22h1v2h-1z"/><path fill="#91c771" d="M3.5.5h25v10h-25z"/><path fill="#91c771" d="M3.5.5h25v10h-25z"/><path fill="#77be51" d="M27.5.5h1v10h-1z"/><path fill="#fff" d="M5.5 2.5h21v6h-21z"/><path fill="#ed4769" d="M14 5h4v1h-4z"/><path d="M14 6h4V5h-4Zm4.5 16h-1v2h1Zm-4 0h-1v2h1ZM30 29V13h-3v-2h2V0H3v11h2v2H2v16H0v3h32v-3ZM4 10V1h24v9Zm22 1v2h-1v-2Zm-2 0v2H8v-2ZM7 11v2H6v-2Zm-4 3h26v15h-4V18h1v-3H6v3h1v11H3Zm4 3v-1h18v1Zm17 1v11h-7.5V18Zm-8.5 0v11H8V18ZM31 31H1v-1h30ZM5 9h22V2H5Zm1-6h20v5H6Z"/></svg>