<svg xmlns="http://www.w3.org/2000/svg" data-name="Layer 1" viewBox="0 0 32 32"><circle cx="13" cy="16" r="12.5" fill="#c8c5cc"/><path fill="#aeadb3" d="M13 3.5h-1a12.49 12.49 0 0 1 0 24.9c.33 0 .66.05 1 .05a12.5 12.5 0 0 0 0-25Z"/><circle cx="13" cy="8" r="2.5" fill="#57565c"/><path fill="#3c3b41" d="M13 5.5a2.73 2.73 0 0 0-.5 0 2.5 2.5 0 0 1 0 4.9 2.73 2.73 0 0 0 .5.05 2.5 2.5 0 0 0 0-5Z"/><circle cx="13" cy="16" r="2.5" fill="#57565c"/><path fill="#3c3b41" d="M13 13.5a2.73 2.73 0 0 0-.5.05 2.5 2.5 0 0 1 0 4.9 2.73 2.73 0 0 0 .5.05 2.5 2.5 0 0 0 0-5Z"/><circle cx="13" cy="24" r="2.5" fill="#57565c"/><path fill="#3c3b41" d="M13 21.5a2.73 2.73 0 0 0-.5.05 2.5 2.5 0 0 1 0 4.9 2.73 2.73 0 0 0 .5.05 2.5 2.5 0 0 0 0-5Z"/><circle cx="6.07" cy="20" r="2.5" fill="#57565c"/><path fill="#3c3b41" d="M8.24 18.75a2.49 2.49 0 0 0-2.67-1.19 2.49 2.49 0 0 1 .75 4.61 2.6 2.6 0 0 1-.75.27 2.49 2.49 0 0 0 2.67-3.69Z"/><circle cx="19.93" cy="12" r="2.5" fill="#57565c"/><path fill="#3c3b41" d="M22.09 10.75a2.48 2.48 0 0 0-2.66-1.19 2.48 2.48 0 0 1 1.66 1.19 2.51 2.51 0 0 1-.91 3.42 2.71 2.71 0 0 1-.75.27 2.48 2.48 0 0 0 2.66-3.69Z"/><circle cx="19.93" cy="20" r="2.5" fill="#57565c"/><path fill="#3c3b41" d="M21.18 17.83a2.52 2.52 0 0 0-1.75-.27 2.71 2.71 0 0 1 .75.27 2.51 2.51 0 0 1 .91 3.42 2.48 2.48 0 0 1-1.66 1.19 2.48 2.48 0 0 0 2.66-1.19 2.51 2.51 0 0 0-.91-3.42Z"/><circle cx="6.07" cy="12" r="2.5" fill="#57565c"/><path fill="#3c3b41" d="M7.32 9.83a2.51 2.51 0 0 0-1.75-.27 2.6 2.6 0 0 1 .75.27 2.49 2.49 0 0 1-.75 4.61 2.5 2.5 0 0 0 1.75-4.61Z"/><path d="M6.85 17.1a3 3 0 0 0-3.38 4.4A3 3 0 0 0 6.08 23a3 3 0 0 0 1.49-.4 3 3 0 0 0-.72-5.5Zm.22 4.63a2 2 0 0 1-2-3.46 2 2 0 0 1 1-.27 1.86 1.86 0 0 1 .52.07A2 2 0 0 1 7.8 19a2 2 0 0 1-.73 2.73ZM18 28a13 13 0 1 0-5 1h19v-1ZM1 16a12 12 0 1 1 12 12A12 12 0 0 1 1 16Zm18.15-1.1a3 3 0 0 0 .78.1 3.06 3.06 0 0 0 1.5-.4 3 3 0 1 0-2.28.3Zm-.22-4.63a2 2 0 1 1 2 3.46A2 2 0 0 1 18.2 13a2 2 0 0 1 .73-2.73ZM13 21a3 3 0 1 0 3 3 3 3 0 0 0-3-3Zm0 5a2 2 0 1 1 2-2 2 2 0 0 1-2 2Zm0-13a3 3 0 1 0 3 3 3 3 0 0 0-3-3Zm0 5a2 2 0 1 1 2-2 2 2 0 0 1-2 2Zm0-13a3 3 0 1 0 3 3 3 3 0 0 0-3-3Zm0 5a2 2 0 1 1 2-2 2 2 0 0 1-2 2Zm-5.43-.6a3 3 0 0 0-3 5.2 3.06 3.06 0 0 0 1.5.4 3 3 0 0 0 .78-.1 3 3 0 0 0 .72-5.5ZM7.8 13a2 2 0 0 1-2.73.73A2 2 0 1 1 7.8 13Zm14.73 8.5a3 3 0 0 0-1.1-4.1 3 3 0 0 0-2.28-.3 3 3 0 0 0-.72 5.5 3 3 0 0 0 1.49.4 3 3 0 0 0 2.61-1.5Zm-.87-.5a2 2 0 1 1-3.46-2 2 2 0 0 1 2.73-.73 2 2 0 0 1 .73 2.73Z"/></svg>