<svg xmlns="http://www.w3.org/2000/svg" data-name="Layer 1" viewBox="0 0 32 32"><path fill="#7dc7a2" d="M28.33 31.5H3.67v-7.67a5 5 0 0 1 4-4.91L16 17.28l8.31 1.64a5 5 0 0 1 4 4.91Z"/><path fill="#56bc8d" d="M24.31 18.92 16 17.28l-.5.1 7.81 1.54a5 5 0 0 1 4 4.91v7.67h1v-7.67a5 5 0 0 0-4-4.91Z"/><path fill="#fdd8ae" d="M13.53 16.5h5V20A2.5 2.5 0 0 1 16 22.5a2.5 2.5 0 0 1-2.5-2.5v-3.5Z"/><path fill="#fbbf7d" d="M17.53 16.5V20a2.5 2.5 0 0 1-2 2.45 2.73 2.73 0 0 0 .5.05 2.5 2.5 0 0 0 2.5-2.5v-3.5Z"/><path fill="#fdd8ae" d="M21.41 13.5a8.15 8.15 0 0 1-.62 1.37 9.93 9.93 0 0 1-.84 1.2A5.16 5.16 0 0 1 16 18a5.15 5.15 0 0 1-4-2 9.6 9.6 0 0 1-1.33-2.57 12.14 12.14 0 0 1-.56-6c.5-2.91 2.29-5.28 5.85-5.28s5.28 2.39 5.86 5.28a11.51 11.51 0 0 1-.41 6.07Z"/><path fill="#fbbf7d" d="M16 2.22h-.49c5.91.45 6.69 8.33 4.28 12.61a9.93 9.93 0 0 1-.84 1.2 5.25 5.25 0 0 1-3.5 1.97 3.77 3.77 0 0 0 .55 0 5.16 5.16 0 0 0 3.95-2 9.93 9.93 0 0 0 .84-1.2c2.48-4.34 1.6-12.58-4.79-12.58Z"/><path fill="#56bc8d" d="M22.67 27.61h1v3.89h-1zM8.33 27.61h1v3.89h-1z"/><path fill="#57565c" d="M22.2 9.27c-.88-.68-1.76-.35-2.64-1-1 .68-2 .35-3 1-.32-.68-.64-.35-1-1 0 .07-.27-.61-.3-.56a3.06 3.06 0 0 1-2.72 1.13C10.87 8.58 10.23 7 9.78 5.56a10.43 10.43 0 0 1-.51-3.84A5.54 5.54 0 0 0 10.66 3a2.28 2.28 0 0 0 1.73.25 4.52 4.52 0 0 0 1.38-.85A8.93 8.93 0 0 1 18 .55a4.37 4.37 0 0 1 3.67 1 4 4 0 0 1 1 2.26 16.58 16.58 0 0 1 0 2.73 9.13 9.13 0 0 1-.17 1.38c0 .08-.34 1.32-.3 1.35Z"/><path fill="#3c3b41" d="M14.6 8.24c0 .07-.27-.61-.3-.56a3.15 3.15 0 0 1-1.84 1.1h.12a2.92 2.92 0 0 0 2.05-.52zm3.96 0a6.79 6.79 0 0 1-2.24.68 1.05 1.05 0 0 1 .24.35c.82-.56 1.65-.44 2.47-.76a2.55 2.55 0 0 1-.47-.27zm4.12-4.44a4 4 0 0 0-1-2.26 4.2 4.2 0 0 0-3.39-1 3.78 3.78 0 0 1 2.39 1 4 4 0 0 1 1 2.26 16.58 16.58 0 0 1 0 2.73 9.13 9.13 0 0 1-.17 1.38l-.25.94a2.17 2.17 0 0 1 .92.42s.3-1.23.33-1.36a9.13 9.13 0 0 0 .17-1.38 16.58 16.58 0 0 0 0-2.73z"/><path fill="#fbbf7d" d="M21.41 13.5H17l-1-2-1 2h-4.29a12.14 12.14 0 0 1-.56-6h11.71a11.51 11.51 0 0 1-.45 6Z"/><path fill="#c8c5cc" d="M23.5 12.5H17l-1-2-1 2H8.5v-6h15v6z"/><path fill="#aeadb3" d="M22.5 6.5h1v6h-1z"/><path fill="#ed4769" d="M21.5 10.5h-2.49l-.51-.46V8.5h3v2z"/><path fill="#eb304a" d="M20.5 8.5h1v2h-1z"/><path fill="#469ed6" d="M10.5 10.5h2.49l.51-.46V8.5h-3v2z"/><path fill="#227fc0" d="M12.5 8.5v1.54l-.51.46h1l.51-.46V8.5h-1z"/><path d="m24.4 18.43-5.13-1a5.89 5.89 0 0 0 1.08-1.05l.18-.24a7.81 7.81 0 0 0 .7-1 10.33 10.33 0 0 0 .86-2.14H24V6h-.78a12.14 12.14 0 0 0 0-2.25A4.45 4.45 0 0 0 22 1.19 4.77 4.77 0 0 0 17.92.06 9.36 9.36 0 0 0 13.46 2l-.18.14a3.22 3.22 0 0 1-1 .62 1.8 1.8 0 0 1-1.35-.21 4.78 4.78 0 0 1-1.28-1.17L8.86.49l-.09 1.19a10.94 10.94 0 0 0 .53 4l.07.23a.14.14 0 0 0 0 .06H8v7h2a10.44 10.44 0 0 0 1.61 3.37 5.29 5.29 0 0 0 1.07 1.05l-5.11 1a5.51 5.51 0 0 0-4.43 5.4V32h25.69v-8.17a5.51 5.51 0 0 0-4.43-5.4Zm-14-15a2.88 2.88 0 0 0 2.12.3 4 4 0 0 0 1.36-.81l.18-.13a8.4 8.4 0 0 1 4-1.72 3.81 3.81 0 0 1 3.25.84 3.52 3.52 0 0 1 .88 2 10.77 10.77 0 0 1 0 2.05V6H10.44c0-.11-.08-.22-.12-.35l-.07-.23A11.44 11.44 0 0 1 9.77 3a5 5 0 0 0 .64.41ZM9 12V7h14v5h-5.69L16 9.38 14.69 12Zm3.44 3.77A9.69 9.69 0 0 1 11.07 13h4.24l.69-1.38.69 1.38H21a9.6 9.6 0 0 1-.68 1.63 8.87 8.87 0 0 1-.62.89l-.19.25A4.65 4.65 0 0 1 16 17.54a4.64 4.64 0 0 1-3.56-1.77ZM18 18.13V20a2 2 0 1 1-4 0v-1.85a5.89 5.89 0 0 0 2 .39 5.24 5.24 0 0 0 2-.41ZM27.83 31h-4.16v-3.39h-1V31H9.33v-3.39h-1V31H4.17v-7.17a4.52 4.52 0 0 1 3.62-4.42l5.24-1V20a3 3 0 1 0 6 0v-1.61l5.18 1a4.52 4.52 0 0 1 3.62 4.42ZM10 11h3.18l.82-.74V8h-4Zm1-2h2v.81l-.21.19H11Zm11 2V8h-4v2.26l.82.74Zm-3-2h2v1h-1.79L19 9.81Z"/></svg>