<svg xmlns="http://www.w3.org/2000/svg" data-name="Layer 1" viewBox="0 0 32 32"><rect width="5" height="6" x="21.5" y="25.5" fill="#eb304a"></rect><rect width="5" height="6" x="13.5" y="25.5" fill="#eb304a"></rect><rect width="5" height="6" x="5.5" y="25.5" fill="#eb304a"></rect><rect width="31" height="19" x=".5" y=".5" fill="#52bbe9"></rect><rect width="1" height="19" x="30.5" y=".5" fill="#1cabe1"></rect><circle cx="16" cy="8" r="5.5" fill="#fee27d"></circle><path fill="#fddd5a" d="M16,2.5a4.07,4.07,0,0,0-.5,0,5.49,5.49,0,0,1,0,10.94,4.07,4.07,0,0,0,.5,0,5.5,5.5,0,0,0,0-11Z"></path><polygon fill="#fff" points="15 6 18 8 15 10 15 6"></polygon><circle cx="18.5" cy="16.5" r="1" fill="#ed4769"></circle><circle cx="3.98" cy="26.02" r="1.5" fill="#ed4769"></circle><rect width="5" height="4" x="1.5" y="27.5" fill="#ed4769"></rect><circle cx="11.98" cy="26.02" r="1.5" fill="#ed4769"></circle><circle cx="7.98" cy="24.02" r="1.5" fill="#eb304a"></circle><circle cx="15.98" cy="24.02" r="1.5" fill="#eb304a"></circle><circle cx="23.98" cy="24.02" r="1.5" fill="#eb304a"></circle><path fill="#e4222e" d="M24 22.52a1.43 1.43 0 0 0-.5.09 1.49 1.49 0 0 1 0 2.81 1.44 1.44 0 0 0 .5.1 1.5 1.5 0 0 0 0-3zM16 22.52a1.43 1.43 0 0 0-.5.09 1.49 1.49 0 0 1 0 2.81 1.44 1.44 0 0 0 .5.1 1.5 1.5 0 0 0 0-3zM8 22.52a1.43 1.43 0 0 0-.5.09 1.49 1.49 0 0 1 0 2.81 1.44 1.44 0 0 0 .5.1 1.5 1.5 0 0 0 0-3z"></path><rect width="5" height="4" x="9.5" y="27.5" fill="#ed4769"></rect><circle cx="19.98" cy="26.02" r="1.5" fill="#ed4769"></circle><rect width="5" height="4" x="17.5" y="27.5" fill="#ed4769"></rect><circle cx="27.98" cy="26.02" r="1.5" fill="#ed4769"></circle><path fill="#eb304a" d="M28 24.52a1.43 1.43 0 0 0-.5.09 1.49 1.49 0 0 1 0 2.81 1.44 1.44 0 0 0 .5.1 1.5 1.5 0 0 0 0-3zM20 24.52a1.43 1.43 0 0 0-.5.09 1.49 1.49 0 0 1 0 2.81 1.44 1.44 0 0 0 .5.1 1.5 1.5 0 0 0 0-3zM12 24.52a1.43 1.43 0 0 0-.5.09 1.49 1.49 0 0 1 0 2.81 1.44 1.44 0 0 0 .5.1 1.5 1.5 0 0 0 0-3zM4 24.52a1.43 1.43 0 0 0-.5.09 1.49 1.49 0 0 1 0 2.81 1.44 1.44 0 0 0 .5.1 1.5 1.5 0 0 0 0-3z"></path><rect width="5" height="4" x="25.5" y="27.5" fill="#ed4769"></rect><rect width="1" height="4" x="29.5" y="27.5" fill="#eb304a"></rect><path d="M0,0V20H32V0ZM31,19H1V1H31ZM14.5,5.07v5.86L18.9,8Zm1,1.86L17.1,8,15.5,9.07ZM18.5,18a1.51,1.51,0,0,0,1.41-1H30V16H19.91a1.49,1.49,0,0,0-2.82,0H2v1H17.09A1.51,1.51,0,0,0,18.5,18Zm0-2a.5.5,0,1,1-.5.5A.5.5,0,0,1,18.5,16Zm12,11h-.78a2,2,0,1,0-3.44-2h-.56a2,2,0,1,0-3.44,0h-.56a2,2,0,0,0-3.44,0h-.56a2,2,0,1,0-3.44,0h-.56a2,2,0,0,0-3.44,0H9.72a2,2,0,1,0-3.44,0H5.72a2,2,0,1,0-3.44,2H1.5a.5.5,0,0,0-.5.5v4a.5.5,0,0,0,.5.5h29a.5.5,0,0,0,.5-.5v-4A.5.5,0,0,0,30.5,27ZM28,25a1,1,0,1,1-1,1A1,1,0,0,1,28,25Zm-4-2a1,1,0,1,1-1,1A1,1,0,0,1,24,23Zm-4,2a1,1,0,1,1-1,1A1,1,0,0,1,20,25Zm-4-2a1,1,0,1,1-1,1A1,1,0,0,1,16,23Zm-4,2a1,1,0,1,1-1,1A1,1,0,0,1,12,25ZM8,23a1,1,0,1,1-1,1A1,1,0,0,1,8,23ZM4,25a1,1,0,1,1-1,1A1,1,0,0,1,4,25Zm2,6H2V28H6Zm3-3.5V31H7V27.5a.5.5,0,0,0-.5-.5H6V26h4v1H9.5A.5.5,0,0,0,9,27.5ZM14,31H10V28h4Zm3-3.5V31H15V27.5a.5.5,0,0,0-.5-.5H14V26h4v1h-.5A.5.5,0,0,0,17,27.5ZM22,31H18V28h4Zm3-3.5V31H23V27.5a.5.5,0,0,0-.5-.5H22V26h4v1h-.5A.5.5,0,0,0,25,27.5ZM30,31H26V28h4ZM16,14a6,6,0,1,0-6-6A6,6,0,0,0,16,14ZM16,3a5,5,0,1,1-5,5A5,5,0,0,1,16,3Z"></path></svg>