<svg xmlns="http://www.w3.org/2000/svg" data-name="Layer 1" viewBox="0 0 32 32"><path fill="#eb304a" d="M21.5 25.5h5v6h-5zM13.5 25.5h5v6h-5zM5.5 25.5h5v6h-5z"/><path fill="#52bbe9" d="M.5.5h31v19H.5z"/><path fill="#1cabe1" d="M30.5.5h1v19h-1z"/><circle cx="16" cy="8" r="5.5" fill="#fee27d"/><path fill="#fddd5a" d="M16 2.5a4.07 4.07 0 0 0-.5 0 5.49 5.49 0 0 1 0 10.94 4.07 4.07 0 0 0 .5 0 5.5 5.5 0 0 0 0-11Z"/><path fill="#fff" d="m15 6 3 2-3 2V6z"/><circle cx="18.5" cy="16.5" r="1" fill="#ed4769"/><circle cx="3.98" cy="26.02" r="1.5" fill="#ed4769"/><path fill="#ed4769" d="M1.5 27.5h5v4h-5z"/><circle cx="11.98" cy="26.02" r="1.5" fill="#ed4769"/><circle cx="7.98" cy="24.02" r="1.5" fill="#eb304a"/><circle cx="15.98" cy="24.02" r="1.5" fill="#eb304a"/><circle cx="23.98" cy="24.02" r="1.5" fill="#eb304a"/><path fill="#e4222e" d="M24 22.52a1.43 1.43 0 0 0-.5.09 1.49 1.49 0 0 1 0 2.81 1.44 1.44 0 0 0 .5.1 1.5 1.5 0 0 0 0-3zm-8 0a1.43 1.43 0 0 0-.5.09 1.49 1.49 0 0 1 0 2.81 1.44 1.44 0 0 0 .5.1 1.5 1.5 0 0 0 0-3zm-8 0a1.43 1.43 0 0 0-.5.09 1.49 1.49 0 0 1 0 2.81 1.44 1.44 0 0 0 .5.1 1.5 1.5 0 0 0 0-3z"/><path fill="#ed4769" d="M9.5 27.5h5v4h-5z"/><circle cx="19.98" cy="26.02" r="1.5" fill="#ed4769"/><path fill="#ed4769" d="M17.5 27.5h5v4h-5z"/><circle cx="27.98" cy="26.02" r="1.5" fill="#ed4769"/><path fill="#eb304a" d="M28 24.52a1.43 1.43 0 0 0-.5.09 1.49 1.49 0 0 1 0 2.81 1.44 1.44 0 0 0 .5.1 1.5 1.5 0 0 0 0-3zm-8 0a1.43 1.43 0 0 0-.5.09 1.49 1.49 0 0 1 0 2.81 1.44 1.44 0 0 0 .5.1 1.5 1.5 0 0 0 0-3zm-8 0a1.43 1.43 0 0 0-.5.09 1.49 1.49 0 0 1 0 2.81 1.44 1.44 0 0 0 .5.1 1.5 1.5 0 0 0 0-3zm-8 0a1.43 1.43 0 0 0-.5.09 1.49 1.49 0 0 1 0 2.81 1.44 1.44 0 0 0 .5.1 1.5 1.5 0 0 0 0-3z"/><path fill="#ed4769" d="M25.5 27.5h5v4h-5z"/><path fill="#eb304a" d="M29.5 27.5h1v4h-1z"/><path d="M0 0v20h32V0Zm31 19H1V1h30ZM14.5 5.07v5.86L18.9 8Zm1 1.86L17.1 8l-1.6 1.07Zm3 11.07a1.51 1.51 0 0 0 1.41-1H30v-1H19.91a1.49 1.49 0 0 0-2.82 0H2v1h15.09a1.51 1.51 0 0 0 1.41 1Zm0-2a.5.5 0 1 1-.5.5.5.5 0 0 1 .5-.5Zm12 11h-.78a2 2 0 1 0-3.44-2h-.56a2 2 0 1 0-3.44 0h-.56a2 2 0 0 0-3.44 0h-.56a2 2 0 1 0-3.44 0h-.56a2 2 0 0 0-3.44 0h-.56a2 2 0 1 0-3.44 0h-.56a2 2 0 1 0-3.44 2H1.5a.5.5 0 0 0-.5.5v4a.5.5 0 0 0 .5.5h29a.5.5 0 0 0 .5-.5v-4a.5.5 0 0 0-.5-.5ZM28 25a1 1 0 1 1-1 1 1 1 0 0 1 1-1Zm-4-2a1 1 0 1 1-1 1 1 1 0 0 1 1-1Zm-4 2a1 1 0 1 1-1 1 1 1 0 0 1 1-1Zm-4-2a1 1 0 1 1-1 1 1 1 0 0 1 1-1Zm-4 2a1 1 0 1 1-1 1 1 1 0 0 1 1-1Zm-4-2a1 1 0 1 1-1 1 1 1 0 0 1 1-1Zm-4 2a1 1 0 1 1-1 1 1 1 0 0 1 1-1Zm2 6H2v-3h4Zm3-3.5V31H7v-3.5a.5.5 0 0 0-.5-.5H6v-1h4v1h-.5a.5.5 0 0 0-.5.5Zm5 3.5h-4v-3h4Zm3-3.5V31h-2v-3.5a.5.5 0 0 0-.5-.5H14v-1h4v1h-.5a.5.5 0 0 0-.5.5Zm5 3.5h-4v-3h4Zm3-3.5V31h-2v-3.5a.5.5 0 0 0-.5-.5H22v-1h4v1h-.5a.5.5 0 0 0-.5.5Zm5 3.5h-4v-3h4ZM16 14a6 6 0 1 0-6-6 6 6 0 0 0 6 6Zm0-11a5 5 0 1 1-5 5 5 5 0 0 1 5-5Z"/></svg>