<svg xmlns="http://www.w3.org/2000/svg" data-name="Layer 1" viewBox="0 0 32 32"><rect width="29" height="15" x="1.5" y="4.5" fill="#52bbe9"></rect><rect width="1" height="15" x="29.5" y="4.5" fill="#1cabe1"></rect><path fill="#fff" d="M8.75,14.5h0a2,2,0,0,1,2,2v3a0,0,0,0,1,0,0h-4a0,0,0,0,1,0,0v-3A2,2,0,0,1,8.75,14.5Z"></path><path fill="#dadadc" d="M8.75,14.5a2.08,2.08,0,0,0-.5.07,2,2,0,0,1,1.5,1.93v3h1v-3A2,2,0,0,0,8.75,14.5Z"></path><path fill="#fff" d="M23.25,14.5h0a2,2,0,0,1,2,2v3a0,0,0,0,1,0,0h-4a0,0,0,0,1,0,0v-3A2,2,0,0,1,23.25,14.5Z"></path><path fill="#dadadc" d="M23.25,14.5a2.08,2.08,0,0,0-.5.07,2,2,0,0,1,1.5,1.93v3h1v-3A2,2,0,0,0,23.25,14.5Z"></path><rect width="31" height="12" x=".5" y="19.5" fill="#fee27d"></rect><rect width="1" height="12" x="30.5" y="19.5" fill="#fddd5a"></rect><rect width="31" height="4" x=".5" y=".5" fill="#fee27d"></rect><rect width="1" height="4" x="30.5" y=".5" fill="#fddd5a"></rect><path fill="#ed4769" d="M22.5,25.5a1,1,0,0,1,1-1v-3H8.5v3a1,1,0,0,1,0,2v3h15v-3A1,1,0,0,1,22.5,25.5Z"></path><path fill="#eb304a" d="M23.5,24.5v-3h-1v3a1,1,0,0,0,0,2v3h1v-3a1,1,0,0,1,0-2Z"></path><rect width="7" height="1" x="12.5" y="24" fill="#fff"></rect><rect width="7" height="1" x="12.5" y="26" fill="#fff"></rect><rect width="10" height="1" x="11" y="2" fill="#ed4769"></rect><rect width="5" height="1" x="6.25" y="6" fill="#fff"></rect><rect width="5" height="1" x="20.75" y="6" fill="#fff"></rect><rect width="1" height="15" x="15.5" y="4.5" fill="#fee27d"></rect><path d="M12.5,25h7V24h-7Zm0,2h7V26h-7ZM24,26h-.5a.5.5,0,0,1,0-1H24V21H8v4h.5a.5.5,0,0,1,0,1H8v4H24Zm-1,3H9V26.91a1.49,1.49,0,0,0,0-2.82V22H23v2.09a1.49,1.49,0,0,0,0,2.82ZM32,5V0H0V5H1V19H0V32H32V19H31V5ZM31,31H1V20H31ZM8.75,14a2.5,2.5,0,0,0-2.5,2.5V19H2V5H15.5V19H11.25V16.5A2.5,2.5,0,0,0,8.75,14Zm1.5,2.5V19h-3V16.5a1.5,1.5,0,0,1,3,0Zm13-2.5a2.5,2.5,0,0,0-2.5,2.5V19H16.5V5H30V19H25.75V16.5A2.5,2.5,0,0,0,23.25,14Zm1.5,2.5V19h-3V16.5a1.5,1.5,0,0,1,3,0ZM1,4V1H31V4ZM11,3H21V2H11Zm.25,3h-5V7h5Zm14.5,0h-5V7h5Z"></path></svg>