<svg xmlns="http://www.w3.org/2000/svg" data-name="Layer 1" viewBox="0 0 32 32"><path fill="#52bbe9" d="M1.5 4.5h29v15h-29z"/><path fill="#1cabe1" d="M29.5 4.5h1v15h-1z"/><path fill="#fff" d="M8.75 14.5a2 2 0 0 1 2 2v3h-4v-3a2 2 0 0 1 2-2Z"/><path fill="#dadadc" d="M8.75 14.5a2.08 2.08 0 0 0-.5.07 2 2 0 0 1 1.5 1.93v3h1v-3a2 2 0 0 0-2-2Z"/><path fill="#fff" d="M23.25 14.5a2 2 0 0 1 2 2v3h-4v-3a2 2 0 0 1 2-2Z"/><path fill="#dadadc" d="M23.25 14.5a2.08 2.08 0 0 0-.5.07 2 2 0 0 1 1.5 1.93v3h1v-3a2 2 0 0 0-2-2Z"/><path fill="#fee27d" d="M.5 19.5h31v12H.5z"/><path fill="#fddd5a" d="M30.5 19.5h1v12h-1z"/><path fill="#fee27d" d="M.5.5h31v4H.5z"/><path fill="#fddd5a" d="M30.5.5h1v4h-1z"/><path fill="#ed4769" d="M22.5 25.5a1 1 0 0 1 1-1v-3h-15v3a1 1 0 0 1 0 2v3h15v-3a1 1 0 0 1-1-1Z"/><path fill="#eb304a" d="M23.5 24.5v-3h-1v3a1 1 0 0 0 0 2v3h1v-3a1 1 0 0 1 0-2Z"/><path fill="#fff" d="M12.5 24h7v1h-7zM12.5 26h7v1h-7z"/><path fill="#ed4769" d="M11 2h10v1H11z"/><path fill="#fff" d="M6.25 6h5v1h-5zM20.75 6h5v1h-5z"/><path fill="#fee27d" d="M15.5 4.5h1v15h-1z"/><path d="M12.5 25h7v-1h-7Zm0 2h7v-1h-7ZM24 26h-.5a.5.5 0 0 1 0-1h.5v-4H8v4h.5a.5.5 0 0 1 0 1H8v4h16Zm-1 3H9v-2.09a1.49 1.49 0 0 0 0-2.82V22h14v2.09a1.49 1.49 0 0 0 0 2.82Zm9-24V0H0v5h1v14H0v13h32V19h-1V5Zm-1 26H1V20h30ZM8.75 14a2.5 2.5 0 0 0-2.5 2.5V19H2V5h13.5v14h-4.25v-2.5a2.5 2.5 0 0 0-2.5-2.5Zm1.5 2.5V19h-3v-2.5a1.5 1.5 0 0 1 3 0Zm13-2.5a2.5 2.5 0 0 0-2.5 2.5V19H16.5V5H30v14h-4.25v-2.5a2.5 2.5 0 0 0-2.5-2.5Zm1.5 2.5V19h-3v-2.5a1.5 1.5 0 0 1 3 0ZM1 4V1h30v3Zm10-1h10V2H11Zm.25 3h-5v1h5Zm14.5 0h-5v1h5Z"/></svg>